<svg width="19" height="17" viewBox="0 0 19 17" fill="none" xmlns="http://www.w3.org/2000/svg">
<path d="M17.6963 10.2195C17.4629 10.2195 17.239 10.3086 17.0739 10.4672C16.9088 10.6257 16.8161 10.8408 16.8161 11.0651V14.4472C16.8161 14.6714 16.7234 14.8865 16.5583 15.045C16.3933 15.2036 16.1694 15.2927 15.9359 15.2927H3.61344C3.38 15.2927 3.15612 15.2036 2.99106 15.045C2.82599 14.8865 2.73326 14.6714 2.73326 14.4472V11.0651C2.73326 10.8408 2.64052 10.6257 2.47546 10.4672C2.31039 10.3086 2.08652 10.2195 1.85308 10.2195C1.61964 10.2195 1.39576 10.3086 1.2307 10.4672C1.06563 10.6257 0.9729 10.8408 0.9729 11.0651V14.4472C0.9729 15.1199 1.2511 15.7651 1.7463 16.2408C2.24149 16.7165 2.91312 16.9838 3.61344 16.9838H15.9359C16.6362 16.9838 17.3079 16.7165 17.8031 16.2408C18.2983 15.7651 18.5765 15.1199 18.5765 14.4472V11.0651C18.5765 10.8408 18.4837 10.6257 18.3187 10.4672C18.1536 10.3086 17.9297 10.2195 17.6963 10.2195ZM9.14976 11.6654C9.23347 11.7424 9.33218 11.8027 9.44022 11.8429C9.54558 11.8877 9.6595 11.9108 9.77469 11.9108C9.88988 11.9108 10.0038 11.8877 10.1092 11.8429C10.2172 11.8027 10.3159 11.7424 10.3996 11.6654L13.9203 8.28326C14.0861 8.12405 14.1792 7.9081 14.1792 7.68294C14.1792 7.45777 14.0861 7.24183 13.9203 7.08261C13.7546 6.9234 13.5298 6.83395 13.2954 6.83395C13.061 6.83395 12.8362 6.9234 12.6705 7.08261L10.6549 9.02733V0.91871C10.6549 0.694462 10.5621 0.479398 10.3971 0.320831C10.232 0.162263 10.0081 0.0731812 9.77469 0.0731812C9.54125 0.0731812 9.31737 0.162263 9.15231 0.320831C8.98724 0.479398 8.89451 0.694462 8.89451 0.91871V9.02733L6.8789 7.08261C6.79683 7.00378 6.69941 6.94124 6.59218 6.89857C6.48495 6.85591 6.37003 6.83395 6.25397 6.83395C6.13791 6.83395 6.02299 6.85591 5.91576 6.89857C5.80854 6.94124 5.71111 7.00378 5.62905 7.08261C5.54698 7.16145 5.48188 7.25504 5.43747 7.35804C5.39305 7.46105 5.37019 7.57145 5.37019 7.68294C5.37019 7.79443 5.39305 7.90483 5.43747 8.00783C5.48188 8.11084 5.54698 8.20443 5.62905 8.28326L9.14976 11.6654Z" fill="#00B2FF"/>
</svg>
