<svg width="24" height="24" viewBox="0 0 24 24" fill="none" xmlns="http://www.w3.org/2000/svg">
<path d="M12.1899 0.69104C9.40329 0.691154 6.7076 1.66789 4.58522 3.44649C2.46283 5.22509 1.05225 7.68949 0.605863 10.3987C0.159477 13.108 0.706419 15.8852 2.14882 18.2336C3.59123 20.582 5.83497 22.3483 8.47858 23.2163C9.06536 23.3175 9.2854 22.9707 9.2854 22.6673C9.2854 22.3928 9.27072 21.4825 9.27072 20.5145C6.32213 21.0491 5.55932 19.8065 5.3246 19.1563C5.06416 18.524 4.6513 17.9636 4.1217 17.5236C3.71095 17.3069 3.12417 16.7723 4.10702 16.7579C4.48231 16.798 4.84225 16.9266 5.15635 17.1328C5.47045 17.3391 5.72944 17.6168 5.91139 17.9426C6.07189 18.2266 6.28772 18.4766 6.54651 18.6783C6.80529 18.88 7.10194 19.0295 7.41945 19.118C7.73697 19.2066 8.06911 19.2326 8.39685 19.1946C8.72459 19.1565 9.04148 19.0551 9.32936 18.8962C9.38017 18.3086 9.64606 17.7592 10.0775 17.3503C7.46636 17.0613 4.73782 16.0643 4.73782 11.6431C4.72133 10.4943 5.15172 9.38284 5.94072 8.53664C5.58194 7.53821 5.62392 6.44251 6.05808 5.47355C6.05808 5.47355 7.0409 5.17012 9.28538 6.65833C11.2057 6.13815 13.2329 6.13815 15.1532 6.65833C17.3976 5.15568 18.3805 5.47355 18.3805 5.47355C18.8147 6.4425 18.8567 7.53822 18.4979 8.53664C19.2892 9.38139 19.72 10.4938 19.7008 11.6431C19.7008 16.0788 16.9575 17.0613 14.3464 17.3503C14.6264 17.6299 14.8421 17.9655 14.9788 18.3345C15.1155 18.7035 15.17 19.0971 15.1385 19.4887C15.1385 21.0347 15.1238 22.2772 15.1238 22.6673C15.1238 22.9708 15.3439 23.332 15.9307 23.2164C18.5696 22.3412 20.8069 20.5708 22.2432 18.2212C23.6794 15.8717 24.2212 13.0958 23.7717 10.3892C23.3222 7.68258 21.9108 5.22138 19.7893 3.44495C17.6679 1.66851 14.9745 0.692467 12.1899 0.69104Z" fill="#00B2FF"/>
</svg>
