<svg width="20" height="18" viewBox="0 0 20 18" fill="none" xmlns="http://www.w3.org/2000/svg">
<path d="M0.521423 2.91016C0.521423 2.34077 0.732884 1.87103 1.15579 1.50095C1.57869 1.13084 2.12848 0.945801 2.80513 0.945801C3.46971 0.945801 4.00739 1.12799 4.41822 1.49241C4.84113 1.8682 5.05259 2.35785 5.05259 2.9614C5.05259 3.50801 4.84718 3.9635 4.43635 4.32791C4.01345 4.70371 3.45762 4.8916 2.76888 4.8916H2.75076C2.08618 4.8916 1.54849 4.70371 1.13766 4.32791C0.72683 3.95212 0.521423 3.47953 0.521423 2.91016ZM0.757044 17.8564V6.44601H4.78072V17.8564H0.757044ZM7.01005 17.8564H11.0337V11.485C11.0337 11.0864 11.0821 10.779 11.1787 10.5626C11.3479 10.1754 11.6047 9.84804 11.949 9.58044C12.2934 9.31283 12.7254 9.17903 13.2449 9.17903C14.5982 9.17903 15.2749 10.0388 15.2749 11.7583V17.8564H19.2986V11.3142C19.2986 9.62883 18.8757 8.35058 18.0298 7.47943C17.184 6.60828 16.0663 6.1727 14.6768 6.1727C13.1181 6.1727 11.9037 6.80472 11.0337 8.06874V8.1029H11.0156L11.0337 8.06874V6.44601H7.01005C7.03421 6.8104 7.0463 7.94346 7.0463 9.8452C7.0463 11.7469 7.03421 14.4173 7.01005 17.8564Z" fill="#00B2FF"/>
</svg>
