<svg width="30" height="30" viewBox="0 0 30 30" fill="none" xmlns="http://www.w3.org/2000/svg">
<path d="M0 3.48485C0 2.47473 0.337847 1.64139 1.01351 0.984848C1.68918 0.328273 2.56758 0 3.64865 0C4.71043 0 5.56949 0.323212 6.22587 0.969697C6.90153 1.63636 7.23938 2.50503 7.23938 3.57576C7.23938 4.54545 6.91121 5.35352 6.25483 6C5.57916 6.66667 4.69112 7 3.59073 7H3.56178C2.49999 7 1.64094 6.66667 0.984556 6C0.328176 5.33333 0 4.49494 0 3.48485ZM0.376448 30V9.75758H6.80502V30H0.376448ZM10.3668 30H16.7954V18.697C16.7954 17.9899 16.8726 17.4444 17.027 17.0606C17.2973 16.3737 17.7075 15.7929 18.2577 15.3182C18.8079 14.8434 19.4981 14.6061 20.3282 14.6061C22.4904 14.6061 23.5714 16.1313 23.5714 19.1818V30H30V18.3939C30 15.404 29.3243 13.1364 27.973 11.5909C26.6216 10.0455 24.8359 9.27273 22.6158 9.27273C20.1255 9.27273 18.1853 10.3939 16.7954 12.6364V12.697H16.7664L16.7954 12.6364V9.75758H10.3668C10.4054 10.404 10.4247 12.4141 10.4247 15.7879C10.4247 19.1616 10.4054 23.899 10.3668 30Z" fill="white"/>
</svg>
