<svg width="40" height="61" viewBox="0 0 40 61" fill="none" xmlns="http://www.w3.org/2000/svg">
<path d="M40 12.0881C39.997 8.99533 38.8654 6.03019 36.8537 3.84318C34.8419 1.65616 32.1142 0.425878 29.269 0.422242H10.7319C8.5002 0.421258 6.32379 1.17686 4.50578 2.5838C2.68778 3.99074 1.31871 5.97898 0.589247 8.27158C-0.140211 10.5642 -0.193732 13.047 0.436137 15.3742C1.06601 17.7014 2.3479 19.7572 4.10329 21.2552C2.82509 22.3453 1.79159 23.7371 1.08088 25.3252C0.37018 26.9133 0.000873688 28.6562 0.000873688 30.4222C0.000873688 32.1883 0.37018 33.9312 1.08088 35.5193C1.79159 37.1074 2.82509 38.4992 4.10329 39.5893C2.3479 41.0873 1.06601 43.143 0.436137 45.4703C-0.193732 47.7975 -0.140211 50.2803 0.589247 52.5729C1.31871 54.8655 2.68778 56.8537 4.50578 58.2607C6.32379 59.6676 8.5002 60.4232 10.7319 60.4222H20.0165C20.6259 60.4222 21.2103 60.1591 21.6412 59.6907C22.0721 59.2224 22.3141 58.5871 22.3141 57.9247V40.0114C24.3165 41.5199 26.7319 42.242 29.1624 42.0588C31.5928 41.8757 33.8934 40.7981 35.6851 39.0037C35.909 38.782 36.0904 38.5145 36.2189 38.2164C36.3474 37.9183 36.4203 37.5955 36.4336 37.2666C36.4469 36.9377 36.4003 36.6092 36.2964 36.3C36.1925 35.9908 36.0333 35.707 35.8282 35.4649C35.623 35.2227 35.3758 35.0271 35.1008 34.8892C34.8258 34.7513 34.5285 34.6738 34.2258 34.6613C33.9232 34.6487 33.6213 34.7013 33.3374 34.8161C33.0536 34.9308 32.7934 35.1054 32.5718 35.3298C31.7348 36.1672 30.7001 36.7352 29.5832 36.9703C28.4664 37.2054 27.3114 37.0983 26.2473 36.6611C25.1832 36.2239 24.2518 35.4738 23.5573 34.4944C22.8627 33.5151 22.4323 32.3452 22.3141 31.1153V29.7292C22.459 28.2252 23.0695 26.8194 24.0458 25.7421C25.022 24.6649 26.306 23.9801 27.6873 23.8001C29.0685 23.6202 30.465 23.9556 31.6479 24.7516C32.8307 25.5475 33.7297 26.7566 34.1974 28.1807C34.4051 28.8004 34.83 29.3056 35.3792 29.586C35.9283 29.8665 36.5573 29.8994 37.1287 29.6776C37.7001 29.4558 38.1676 28.9974 38.4292 28.4023C38.6908 27.8072 38.7252 27.1237 38.5249 26.5012C37.904 24.6124 36.8442 22.9304 35.4484 21.6185C36.8543 20.5428 38.0016 19.1155 38.7938 17.4569C39.5859 15.7982 39.9996 13.9569 40 12.0881ZM35.4048 12.0881C35.403 13.8563 34.7559 15.5516 33.6056 16.802C32.4554 18.0524 30.8958 18.7557 29.269 18.7577H22.3141V5.41725H29.269C30.8959 5.41956 32.4555 6.12316 33.6057 7.37372C34.756 8.62428 35.403 10.3197 35.4048 12.0881ZM4.59613 12.0881C4.59795 10.3197 5.24494 8.62428 6.39519 7.37372C7.54544 6.12316 9.10504 5.41956 10.7319 5.41725H17.6868V18.7577H10.7319C9.10515 18.7557 7.54555 18.0524 6.39526 16.802C5.24498 15.5516 4.59795 13.8563 4.59613 12.0881ZM4.59613 30.4222C4.59795 28.654 5.24498 26.9587 6.39526 25.7083C7.54555 24.458 9.10515 23.7546 10.7319 23.7527H17.7189V29.5044C17.6971 29.8066 17.6868 30.1138 17.6868 30.4222C17.6868 30.7307 17.6971 31.0379 17.7189 31.3401V37.0918H10.7319C9.10515 37.0898 7.54555 36.3865 6.39526 35.1362C5.24498 33.8858 4.59795 32.1905 4.59613 30.4222ZM17.7189 55.4272H10.7319C9.11898 55.4032 7.5796 54.6899 6.44682 53.4416C5.31403 52.1933 4.67894 50.5104 4.67894 48.757C4.67894 47.0036 5.31403 45.3207 6.44682 44.0724C7.5796 42.8241 9.11898 42.1108 10.7319 42.0868H17.7189V55.4272Z" fill="white"/>
</svg>
