<svg width="63" height="61" viewBox="0 0 63 61" fill="none" xmlns="http://www.w3.org/2000/svg">
<path fill-rule="evenodd" clip-rule="evenodd" d="M48.2832 55.7182C44.1637 55.7182 41.1358 54.3163 39.1478 52.2398C38.0647 51.1085 38.6011 49.3514 39.9726 48.595C41.294 47.8662 42.8911 48.3691 44.0522 49.3331C45.086 50.1913 46.388 50.7232 48.1572 50.7232C50.6079 50.7232 52.1735 49.5562 52.1735 47.9452C52.1735 45.5212 48.7777 44.5732 46.3806 43.5952C42.1092 41.8642 39.2742 39.6892 39.2742 35.0962C39.2742 30.8692 42.6573 27.6472 47.9462 27.6472C50.7574 27.6472 52.9809 28.3445 54.7363 30.0585C55.7909 31.0883 55.3483 32.7752 54.091 33.5445C52.8062 34.3308 51.2249 33.7148 49.8988 33.0004C49.3355 32.6969 48.6996 32.5612 47.9462 32.5612C46.2105 32.5612 45.1112 33.6082 45.1112 34.9762C45.1112 36.6682 46.2105 37.3522 48.7494 38.3992C54.0698 40.5712 58.0955 42.2782 58.0955 47.8642C58.0955 52.9402 53.9091 55.7182 48.2832 55.7182ZM34.65 47.2192C34.65 53.0602 30.8731 56.1472 25.6284 56.1472C20.8972 56.1472 18.0603 54.4269 16.6628 51.4343C16.6594 51.427 16.652 51.4222 16.644 51.4222C16.6234 51.4222 16.6153 51.3956 16.6324 51.3842L20.2272 48.9906C20.8601 48.5691 21.6955 48.7814 22.1582 49.3847C22.867 50.3089 23.7125 50.8972 25.1874 50.8972C27.1341 50.8972 28.35 49.9582 28.35 47.1412V30.5722C28.35 28.8325 29.7603 27.4222 31.5 27.4222C33.2397 27.4222 34.65 28.8325 34.65 30.5722V47.2192ZM0 55.4222C0 58.1837 2.23858 60.4222 5 60.4222H58C60.7614 60.4222 63 58.1837 63 55.4222V5.42224C63 2.66082 60.7614 0.422241 58 0.422241H5C2.23858 0.422241 0 2.66082 0 5.42224V55.4222Z" fill="white"/>
</svg>
