<svg width="99" height="61" viewBox="0 0 99 61" fill="none" xmlns="http://www.w3.org/2000/svg">
<path d="M0.000798336 55.0735H3.2806V39.9588L8.35838 53.1356C8.95718 54.7306 9.77713 55.2943 11.3859 55.2943C12.9947 55.2943 13.7835 54.7306 14.3823 53.1356L19.46 39.9588V55.0735H22.7398V39.984C22.7398 38.5119 22.2353 37.7992 21.1942 37.4321C18.7024 36.5246 17.0305 37.3101 16.2737 39.2731L11.2909 52.2775L6.46619 39.2722C5.74045 37.31 4.03748 36.5246 1.54569 37.4312C0.504585 37.7992 0 38.511 0 39.983L0.000798336 55.0735ZM25.468 42.7697H28.747V51.0971C28.7166 51.5489 28.8715 52.611 30.6679 52.6446C31.5844 52.6613 37.7433 52.6446 37.8007 52.6446V42.7287H41.0877C41.1029 42.7287 41.0845 56.2511 41.0845 56.307C41.1021 59.6424 37.5389 60.3663 35.8958 60.4222H25.539V57.8471C25.5566 57.8471 35.8886 57.8499 35.9141 57.8461C38.0259 57.5862 37.776 56.362 37.7752 55.9502V54.9458H30.8044C27.5613 54.9114 25.4951 53.2595 25.4688 51.3589C25.4672 51.1846 25.5398 42.8535 25.468 42.7697ZM43.6162 55.0735H53.0469C54.151 55.0735 55.2241 54.8042 56.0752 54.3384C57.4939 53.5781 58.1877 52.5477 58.1877 51.1967V48.3998C58.1877 47.2958 57.3997 46.2644 55.854 45.5787C55.0341 45.2098 54.0241 45.015 53.0461 45.015H49.0717C47.7471 45.015 47.1164 44.5492 46.9591 43.5188C46.928 43.3958 46.928 43.298 46.928 43.175V41.4327C46.928 41.3349 46.928 41.2361 46.9591 41.1141C47.1164 40.3287 47.4637 40.1079 48.631 39.9849L48.9463 39.9607H58.3139V37.4097H49.1044C47.7799 37.4097 47.0861 37.5076 46.4553 37.7284C44.5001 38.4402 43.6474 39.5684 43.6474 41.5315V43.7638C43.6474 45.4818 45.32 46.9539 48.1264 47.2977C48.4425 47.321 48.7571 47.347 49.0725 47.347H52.4792C52.6054 47.347 52.7315 47.347 52.8265 47.3703C53.8676 47.4682 54.3083 47.6899 54.6245 48.1306C54.8137 48.3514 54.876 48.5731 54.876 48.8172V51.0505C54.876 51.3197 54.7187 51.6635 54.4033 51.9579C54.1199 52.2523 53.6465 52.4489 53.0157 52.4983L52.6684 52.5225H43.6162V55.0735ZM78.6505 50.6331C78.6505 53.2576 80.3224 54.7297 83.6964 55.025C84.0118 55.0492 84.3271 55.0735 84.6425 55.0735H93.1901V52.5225H84.5802C82.6561 52.5225 81.9312 51.9579 81.9312 50.6079V37.4079H78.6513L78.6505 50.6331ZM60.2811 50.7654V41.6675C60.2811 39.357 61.6719 37.9548 64.4216 37.5122C64.7058 37.4628 65.0228 37.4386 65.3062 37.4386H71.5329C71.849 37.4386 72.1333 37.4628 72.4486 37.5122C75.1983 37.9548 76.5899 39.356 76.5899 41.6675V50.7654C76.5899 52.6418 75.9991 53.6443 74.6378 54.2983L77.8697 57.7017H74.0606L71.4466 54.9477L68.8151 55.1424H65.3062C64.7058 55.1424 64.0743 55.0446 63.3789 54.8228C61.2927 54.1595 60.2811 52.8803 60.2811 50.7654ZM63.822 50.5446C63.822 50.6675 63.8531 50.7915 63.8851 50.9387C64.0743 51.9961 64.9286 52.5859 66.2235 52.5859H69.2032L66.4663 49.7023H70.2754L72.6618 52.2179C73.1025 51.943 73.3915 51.5256 73.4929 50.988C73.5241 50.8651 73.5241 50.7421 73.5241 50.6191V41.8911C73.5241 41.7933 73.5241 41.6694 73.4929 41.5464C73.3029 40.5625 72.4494 39.9979 71.1856 39.9979H66.2227C64.7697 39.9979 63.8212 40.7358 63.8212 41.8911L63.822 50.5446ZM96.0755 33.1734C94.0595 33.1091 92.5194 33.3281 91.2021 33.9756C90.8276 34.16 90.2312 34.1647 90.1706 34.7116C90.3758 34.9641 90.4077 35.3395 90.5714 35.6489C90.8859 36.2423 91.4169 37.038 91.8903 37.4545C92.4069 37.91 92.9402 38.3983 93.4959 38.7933C94.4819 39.4958 95.5837 39.8964 96.5346 40.5989C97.0942 41.0144 97.6499 41.5362 98.1968 42.0048C98.4675 42.2349 98.6479 42.5955 99 42.7399V42.6737C98.8156 42.3998 98.7677 42.0234 98.5984 41.7365L97.8527 40.8663C97.1238 39.7371 96.1992 38.7467 95.2148 37.9231C94.4308 37.2663 92.6759 36.3784 92.3486 35.3135L92.2911 35.2473C92.8468 35.1737 93.4983 34.9389 94.0108 34.7787C94.8731 34.5085 95.6436 34.5784 96.5338 34.31L97.7377 33.9076V33.6411C97.2882 33.1026 96.9665 32.3889 96.4763 31.9016C95.1933 30.6262 93.7913 29.3516 92.3486 28.2877C91.5486 27.6988 90.5594 27.3159 89.7107 26.8165C89.4265 26.6479 88.9251 26.5613 88.7359 26.2808C88.2896 25.6184 88.0476 24.7789 87.7035 24.0066C86.985 22.3901 86.2776 20.6237 85.6397 18.9215C85.2054 17.7615 84.9211 16.6174 84.379 15.5767C81.7755 10.582 78.9731 7.56709 74.6322 4.60435C73.7085 3.9736 72.5963 3.72577 71.4219 3.40062L69.5297 3.26646C69.1457 3.07919 68.7449 2.5295 68.3832 2.26304C66.9445 1.20278 63.2559 -1.10313 62.1909 1.92949C61.5186 3.84316 63.1968 5.71025 63.7964 6.68013C64.2172 7.36026 64.7569 8.12237 65.0579 8.88728C65.2559 9.39039 65.2894 9.89443 65.4595 10.4264C65.8755 11.7364 66.2387 13.1628 66.7776 14.373C67.0499 14.9861 67.3509 15.6317 67.695 16.1795C67.9058 16.5149 68.2682 16.664 68.3249 17.183C67.9712 17.7606 67.9505 18.6587 67.7517 19.3901C66.8559 22.6873 67.1936 26.7858 68.4974 29.2259C68.8974 29.9759 69.8395 31.5821 71.1345 30.9653C72.2674 30.4268 72.0151 28.7582 72.3392 27.2852C72.4127 26.9526 72.3672 26.7066 72.5109 26.483V26.5501L73.5432 28.9585C74.3073 30.3942 75.6622 31.8933 76.8111 32.906C77.4067 33.4305 77.8761 34.3389 78.6458 34.6454V34.5774H78.5891C78.439 34.3063 78.2066 34.1945 78.015 33.9756C77.5663 33.4622 77.0673 32.8249 76.6969 32.2361C75.6518 30.5815 74.7288 28.7693 73.8873 26.8836C73.4857 25.9836 73.1368 24.9904 72.7983 24.0737C72.6674 23.7206 72.669 23.1858 72.3975 23.0041C72.0255 23.6749 71.4802 24.2181 71.1927 25.0109C70.7345 26.278 70.6754 27.8237 70.5053 29.4262L70.3904 29.4923C69.5912 29.2678 69.3109 28.3082 69.0139 27.4855C68.2634 25.405 68.1237 22.0538 68.7848 19.6584C68.9557 19.0379 69.7277 17.0861 69.4147 16.5131C69.2654 15.942 68.7728 15.6121 68.4982 15.1743C68.1573 14.6348 67.8164 13.9249 67.5808 13.3007C66.9661 11.6786 66.6794 9.85716 66.0335 8.21647C65.7238 7.432 65.2016 6.63914 64.7721 5.94224C64.297 5.16895 63.7645 4.60062 63.3956 3.66708C63.2647 3.3354 63.0867 2.80341 63.2807 2.46241C63.3422 2.23229 63.4308 2.13633 63.6256 2.06086C63.9577 1.76179 64.8839 2.16055 65.2304 2.32825C66.1501 2.77453 66.9174 3.19844 67.6966 3.80031C68.0702 4.09006 68.4479 4.64907 68.9006 4.80373H69.4163C70.2235 5.01988 71.1281 4.86988 71.8818 5.13727C73.2151 5.61056 74.4095 6.34566 75.4937 7.14504C78.7982 9.58045 81.4992 13.0463 83.3483 17.1811C83.6453 17.8472 83.7746 18.4817 84.0357 19.1879C84.5642 20.6115 85.2301 22.0771 85.7555 23.4699C86.28 24.8591 86.7918 26.2613 87.5335 27.4175C87.9231 28.0249 89.4289 28.351 90.1131 28.6883C90.5929 28.9249 91.3785 29.1718 91.8328 29.4905C92.7007 30.1016 93.5422 30.8293 94.3558 31.4982C94.7621 31.8355 96.0132 32.5687 96.0755 33.1734ZM70.4479 7.68355C70.0279 7.67423 69.7301 7.73759 69.4155 7.81771V7.88386H69.473C69.6734 8.36554 70.0271 8.67486 70.2754 9.08853L70.8494 10.4935L70.9061 10.4273C71.2614 10.1357 71.4235 9.66896 71.4219 8.95529C71.279 8.78014 71.2582 8.56119 71.1353 8.35343C70.9724 8.07393 70.6546 7.9174 70.4479 7.68355Z" fill="white"/>
</svg>
