<svg width="84" height="61" viewBox="0 0 84 61" fill="none" xmlns="http://www.w3.org/2000/svg">
<path d="M59.272 22.4418L57.4353 33.3957C61.9127 33.3957 65.7577 34.139 66.8297 27.762V27.7661C67.8195 21.8069 64.3891 22.4418 59.272 22.4418ZM20.8367 22.4418L19 33.3957C23.5954 33.3957 27.3367 34.0426 28.3944 27.762V27.7661C29.3878 21.8069 25.9288 22.4418 20.8367 22.4418Z" fill="white"/>
<path d="M42 0.422241C18.809 0.422241 0 13.8438 0 30.4222C0 47.0007 18.809 60.4222 42 60.4222C65.191 60.4222 84 47.0007 84 30.4222C84 13.8438 65.191 0.422241 42 0.422241ZM18.7425 39.2422L17.6015 47.2269H12.7855H12.782L17.073 17.153H26.355C29.1375 17.153 31.185 18.1361 32.459 20.1299C34.902 23.9422 34.006 31.5576 30.583 35.8361C27.4855 39.7822 24.1395 39.2422 18.7425 39.2422ZM44.6775 39.2145C46.7005 25.0592 47.0785 23.8869 46.3435 22.8115C45.633 21.7776 44.0195 21.9899 40.1205 21.9899L37.653 39.2099H32.865L37.156 9.15916H41.9475L40.8065 17.1438C44.9435 17.1438 48.7725 16.733 50.624 19.0545C52.5665 21.4822 51.6355 24.5792 49.5355 39.2145H44.6775ZM68.236 35.8407C65.205 39.6899 62.069 39.2422 56.399 39.2422L55.258 47.2269H50.428L54.733 17.153H64.0115C66.794 17.153 68.8415 18.1361 70.1155 20.1299C72.555 23.9515 71.659 31.5622 68.236 35.8407Z" fill="white"/>
</svg>
